<svg width="14" height="14" viewBox="0 0 14 14" fill="none" xmlns="http://www.w3.org/2000/svg">
<path d="M0.833985 0L0 0.833985L1.2487 2.91667H2.0918L4.73047 5.55762L5.55762 4.73047L2.91667 2.0918V1.2487L0.833985 0ZM10.5 0C8.56771 0 7 1.56771 7 3.5C7 3.92839 7.08203 4.33854 7.22103 4.7168L0.428385 11.5117C0.360026 11.5778 0.298503 11.653 0.246094 11.7327C0.223308 11.7692 0.205079 11.8079 0.18457 11.8467C0.159506 11.89 0.132162 11.9355 0.111654 11.9834C0.091146 12.0312 0.0797528 12.0814 0.0638021 12.1315C0.052409 12.1725 0.0364583 12.2135 0.0273438 12.2568C-0.00911458 12.4437 -0.00911458 12.6374 0.0273438 12.8265C0.0364583 12.8698 0.052409 12.9085 0.0638021 12.9518C0.0797528 12.9997 0.091146 13.0521 0.111654 13.0977C0.132162 13.1478 0.157226 13.1911 0.182292 13.2344C0.202799 13.2731 0.221028 13.3118 0.246094 13.3506C0.35319 13.5101 0.489909 13.6468 0.649414 13.7539C0.685872 13.7767 0.724609 13.7949 0.763346 13.8154C0.808919 13.8405 0.852214 13.8678 0.902344 13.8883C0.950195 13.9089 1.00033 13.9202 1.04818 13.9339C1.09147 13.9453 1.13021 13.9613 1.1735 13.9704C1.36263 14.0068 1.55632 14.0068 1.74316 13.9704C1.78646 13.9613 1.82747 13.9453 1.86849 13.9339C1.91862 13.9202 1.96875 13.9089 2.0166 13.8883C2.06445 13.8678 2.11003 13.8405 2.15332 13.8154C2.19206 13.7949 2.23079 13.7767 2.26725 13.7539C2.34701 13.6992 2.4222 13.64 2.48828 13.5716L9.2832 6.77897C9.66146 6.91797 10.0716 7 10.5 7C12.4323 7 14 5.43229 14 3.5C14 2.95996 13.8747 2.44954 13.6559 1.99382L11.0332 4.61654L9.38346 2.9668L12.0062 0.344076C11.5505 0.125326 11.04 0 10.5 0ZM9.88704 7.82487L7.82487 9.88932L11.5117 13.5739C11.5778 13.6423 11.653 13.7015 11.7327 13.7539C11.7692 13.779 11.8079 13.7972 11.8467 13.8177C11.89 13.8428 11.9355 13.8701 11.9834 13.8906C12.0312 13.9089 12.0814 13.9202 12.1315 13.9362C12.1725 13.9476 12.2135 13.9635 12.2568 13.9727C12.4437 14.0091 12.6374 14.0091 12.8265 13.9727C12.8698 13.9635 12.9085 13.9476 12.9518 13.9362C12.9997 13.9202 13.0498 13.9089 13.0977 13.8906C13.1478 13.8701 13.1911 13.8428 13.2367 13.8177C13.2754 13.7972 13.3141 13.779 13.3506 13.7539C13.5101 13.6491 13.6468 13.5101 13.7539 13.3506C13.779 13.3141 13.7949 13.2754 13.8177 13.2367C13.8405 13.1911 13.8678 13.1478 13.8883 13.0977C13.9089 13.0498 13.9202 12.9997 13.9362 12.9518C13.9476 12.9085 13.9635 12.8698 13.9727 12.8265C14.0091 12.6396 14.0091 12.446 13.9727 12.2568C13.9635 12.2135 13.9476 12.1748 13.9362 12.1315C13.9202 12.0837 13.9089 12.0335 13.8883 11.9857C13.8678 11.9355 13.8405 11.8923 13.8154 11.8467C13.7949 11.8079 13.7767 11.7692 13.7539 11.7327C13.6992 11.653 13.64 11.5778 13.5716 11.5117L9.88704 7.82487Z" fill="#07377F"/>
</svg>
