<?xml version="1.0" encoding="UTF-8"?>
<svg xmlns="http://www.w3.org/2000/svg" xmlns:xlink="http://www.w3.org/1999/xlink" viewBox="0 0 522.27 146.45">
  <defs>
    <style>
      .cls-1 {
        isolation: isolate;
      }

      .cls-2 {
        fill: #fff;
      }

      .cls-3 {
        fill: url(#linear-gradient);
        mix-blend-mode: multiply;
      }
    </style>
    <linearGradient id="linear-gradient" x1="380.02" y1="117.46" x2="128.37" y2="9.34" gradientUnits="userSpaceOnUse">
      <stop offset="0" stop-color="#fff" stop-opacity="0"/>
      <stop offset="1" stop-color="#010101"/>
    </linearGradient>
  </defs>
  <g class="cls-1">
    <g id="Layer_2" data-name="Layer 2">
      <g id="Layer_1-2" data-name="Layer 1">
        <g>
          <path class="cls-2" d="M387.38,146.45h-42.23c-13.32,0-26.39-2.19-38.73-6.36-4.38-1.47-8.68-3.2-12.85-5.16-13.64-6.41-26.09-15.36-36.6-26.5-1.8-1.89-3.53-3.85-5.2-5.87l-7.24-8.73-50.84-61.33L167.19.52l-.04-.04c.11-.22.13-.26.23-.48h41.61c3.76,0,7.49.17,11.2.52.28.02.56.05.85.08,6.36.64,12.63,1.78,18.76,3.39,24.27,6.37,46.23,20.2,62.57,39.91l4.05,4.87,49.44,59.66,31.52,38.02Z"/>
          <path class="cls-2" d="M522.27,146.45h-42.23c-13.33,0-26.39-2.19-38.74-6.36-4.38-1.47-8.68-3.2-12.85-5.16-13.64-6.41-26.08-15.36-36.6-26.5-1.79-1.89-3.52-3.85-5.2-5.86L302.03.48c.11-.22.12-.25.23-.48h41.61c10.5,0,20.85,1.36,30.81,3.98,24.27,6.37,46.23,20.2,62.57,39.91l4.05,4.88,49.45,59.65,31.52,38.03Z"/>
          <path class="cls-3" d="M387.38,146.45h-42.23c-13.32,0-26.39-2.19-38.73-6.36-4.38-1.47-8.68-3.2-12.85-5.16-13.64-6.41-26.09-15.36-36.6-26.5-1.8-1.89-3.53-3.85-5.2-5.87l-7.24-8.73-50.84-61.33L167.19.52l-.04-.04c.11-.22.13-.26.23-.48h41.61c3.76,0,7.49.17,11.2.52.28.02.56.05.85.08,6.36.64,12.63,1.78,18.76,3.39,24.27,6.37,46.23,20.2,62.57,39.91l4.05,4.87,49.44,59.66,31.52,38.02Z"/>
          <path class="cls-2" d="M220.19.52l-26.5,31.98-58.08,70.06c-11.52,13.9-25.84,24.87-41.8,32.37-15.94,7.5-33.53,11.52-51.58,11.52H0L85.01,43.9C101.35,24.19,123.31,10.36,147.58,3.99c6.4-1.68,12.96-2.85,19.61-3.47,3.71-.35,7.44-.52,11.2-.52h30.6c3.76,0,7.49.17,11.2.52Z"/>
          <path class="cls-2" d="M254.34,58.77c0,12.84-3.59,24.84-9.81,35.06-11.84,19.42-33.22,32.39-57.63,32.39-20.53,0-38.92-9.18-51.29-23.66-10.07-11.78-16.15-27.07-16.15-43.79,0-22.57,11.09-42.54,28.12-54.78,6.4-1.68,12.96-2.85,19.61-3.47,3.71-.35,7.44-.52,11.2-.52h30.6c3.76,0,7.49.17,11.2.52.28.02.56.05.85.08,19.94,11.72,33.3,33.38,33.3,58.17Z"/>
        </g>
      </g>
    </g>
  </g>
</svg>