<svg width="16" height="16" viewBox="0 0 16 16" fill="none" xmlns="http://www.w3.org/2000/svg">
<path fill-rule="evenodd" clip-rule="evenodd" d="M0.888916 7.99978C0.888916 4.07242 4.07267 0.888672 8.00003 0.888672C11.9274 0.888672 15.1111 4.07242 15.1111 7.99978C15.1111 11.9271 11.9274 15.1109 8.00003 15.1109C4.07267 15.1109 0.888916 11.9271 0.888916 7.99978ZM14.0576 7.99978C14.0576 4.65426 11.3456 1.94217 8.00003 1.94217C4.6545 1.94217 1.94241 4.65426 1.94241 7.99978C1.94241 11.3453 4.6545 14.0574 8.00003 14.0574C11.3456 14.0574 14.0576 11.3453 14.0576 7.99978ZM8.00003 6.9166C8.27478 6.9166 8.5004 7.12696 8.52462 7.3954L8.52678 7.44335V11.369C8.52678 11.6599 8.29094 11.8957 8.00003 11.8957C7.72527 11.8957 7.49965 11.6853 7.47543 11.4169L7.47328 11.369V7.44335C7.47328 7.15243 7.70911 6.9166 8.00003 6.9166ZM7.50003 4.99978C7.77617 4.99978 8.00003 4.77593 8.00003 4.49978C8.00003 4.22364 7.77617 3.99978 7.50003 3.99978C7.22388 3.99978 7.00003 4.22364 7.00003 4.49978C7.00003 4.77593 7.22388 4.99978 7.50003 4.99978Z" fill="#806D16"/>
</svg>
